<mxfile host="app.diagrams.net" modified="2020-08-17T11:48:28.250Z" agent="5.0 (X11; Linux x86_64) AppleWebKit/537.36 (KHTML, like Gecko) Chrome/84.0.4147.125 Safari/537.36" etag="8ZrsBfNAYOnBV3Wx5dVn" version="13.6.2" type="github">
  <diagram id="Nkn0S0ipNbv6UOv9np2N" name="Page-1">
    <mxGraphModel dx="1153" dy="723" grid="1" gridSize="10" guides="1" tooltips="1" connect="1" arrows="1" fold="1" page="1" pageScale="1" pageWidth="827" pageHeight="1169" background="#ffffff" math="0" shadow="0">
      <root>
        <mxCell id="0" />
        <mxCell id="1" parent="0" />
      </root>
    </mxGraphModel>
  </diagram>
</mxfile>
